<?xml version="1.0" encoding="UTF-8" standalone="no"?>
<!-- Created with Inkscape (http://www.inkscape.org/) -->

<svg
   width="98.597565mm"
   height="120.93494mm"
   viewBox="0 0 98.597565 120.93494"
   version="1.1"
   id="svg1"
   xml:space="preserve"
   inkscape:export-filename="electricfield_sphere.png"
   inkscape:export-xdpi="1000"
   inkscape:export-ydpi="1000"
   xmlns:inkscape="http://www.inkscape.org/namespaces/inkscape"
   xmlns:sodipodi="http://sodipodi.sourceforge.net/DTD/sodipodi-0.dtd"
   xmlns:xlink="http://www.w3.org/1999/xlink"
   xmlns="http://www.w3.org/2000/svg"
   xmlns:svg="http://www.w3.org/2000/svg"><sodipodi:namedview
     id="namedview1"
     pagecolor="#ffffff"
     bordercolor="#000000"
     borderopacity="0.25"
     inkscape:showpageshadow="2"
     inkscape:pageopacity="0.0"
     inkscape:pagecheckerboard="0"
     inkscape:deskcolor="#d1d1d1"
     inkscape:document-units="mm" /><defs
     id="defs1"><inkscape:path-effect
       effect="bspline"
       id="path-effect66"
       is_visible="true"
       lpeversion="1.3"
       weight="33.333333"
       steps="2"
       helper_size="0"
       apply_no_weight="true"
       apply_with_weight="true"
       only_selected="false"
       uniform="false" /><inkscape:path-effect
       effect="bspline"
       id="path-effect65"
       is_visible="true"
       lpeversion="1.3"
       weight="33.333333"
       steps="2"
       helper_size="0"
       apply_no_weight="true"
       apply_with_weight="true"
       only_selected="false"
       uniform="false" /><inkscape:path-effect
       effect="bspline"
       id="path-effect64"
       is_visible="true"
       lpeversion="1.3"
       weight="33.333333"
       steps="2"
       helper_size="0"
       apply_no_weight="true"
       apply_with_weight="true"
       only_selected="false"
       uniform="false" /><inkscape:path-effect
       effect="bspline"
       id="path-effect63"
       is_visible="true"
       lpeversion="1.3"
       weight="33.333333"
       steps="2"
       helper_size="0"
       apply_no_weight="true"
       apply_with_weight="true"
       only_selected="false"
       uniform="false" /><inkscape:path-effect
       effect="bspline"
       id="path-effect62"
       is_visible="true"
       lpeversion="1.3"
       weight="33.333333"
       steps="2"
       helper_size="0"
       apply_no_weight="true"
       apply_with_weight="true"
       only_selected="false"
       uniform="false" /><inkscape:path-effect
       effect="bspline"
       id="path-effect61"
       is_visible="true"
       lpeversion="1.3"
       weight="33.333333"
       steps="2"
       helper_size="0"
       apply_no_weight="true"
       apply_with_weight="true"
       only_selected="false"
       uniform="false" /><inkscape:path-effect
       effect="bspline"
       id="path-effect60"
       is_visible="true"
       lpeversion="1.3"
       weight="33.333333"
       steps="2"
       helper_size="0"
       apply_no_weight="true"
       apply_with_weight="true"
       only_selected="false"
       uniform="false" /><inkscape:path-effect
       effect="bspline"
       id="path-effect59"
       is_visible="true"
       lpeversion="1.3"
       weight="33.333333"
       steps="2"
       helper_size="0"
       apply_no_weight="true"
       apply_with_weight="true"
       only_selected="false"
       uniform="false" /><inkscape:path-effect
       effect="bspline"
       id="path-effect58"
       is_visible="true"
       lpeversion="1.3"
       weight="33.333333"
       steps="2"
       helper_size="0"
       apply_no_weight="true"
       apply_with_weight="true"
       only_selected="false"
       uniform="false" /><inkscape:path-effect
       effect="bspline"
       id="path-effect57"
       is_visible="true"
       lpeversion="1.3"
       weight="33.333333"
       steps="2"
       helper_size="0"
       apply_no_weight="true"
       apply_with_weight="true"
       only_selected="false"
       uniform="false" /><radialGradient
       inkscape:collect="always"
       xlink:href="#linearGradient12"
       id="radialGradient7"
       cx="69.134575"
       cy="75.844803"
       fx="69.134575"
       fy="75.844803"
       r="35"
       gradientUnits="userSpaceOnUse"
       gradientTransform="matrix(1.3627087,1.1355954,-0.98093712,1.1771198,56.250973,-91.369511)" /><linearGradient
       id="linearGradient12"
       inkscape:collect="always"><stop
         style="stop-color:#e6e6e6;stop-opacity:1"
         offset="0"
         id="stop5" /><stop
         style="stop-color:#cccccc;stop-opacity:1"
         offset="0.2787914"
         id="stop10" /><stop
         style="stop-color:#999999;stop-opacity:1"
         offset="0.59368736"
         id="stop11" /><stop
         style="stop-color:#4d4d4d;stop-opacity:1"
         offset="0.94675928"
         id="stop12" /></linearGradient><inkscape:path-effect
       effect="bspline"
       id="path-effect63-8"
       is_visible="true"
       lpeversion="1.3"
       weight="33.333333"
       steps="2"
       helper_size="0"
       apply_no_weight="true"
       apply_with_weight="true"
       only_selected="false"
       uniform="false" /><inkscape:path-effect
       effect="bspline"
       id="path-effect62-65"
       is_visible="true"
       lpeversion="1.3"
       weight="33.333333"
       steps="2"
       helper_size="0"
       apply_no_weight="true"
       apply_with_weight="true"
       only_selected="false"
       uniform="false" /><inkscape:path-effect
       effect="bspline"
       id="path-effect61-80"
       is_visible="true"
       lpeversion="1.3"
       weight="33.333333"
       steps="2"
       helper_size="0"
       apply_no_weight="true"
       apply_with_weight="true"
       only_selected="false"
       uniform="false" /><inkscape:path-effect
       effect="bspline"
       id="path-effect60-3"
       is_visible="true"
       lpeversion="1.3"
       weight="33.333333"
       steps="2"
       helper_size="0"
       apply_no_weight="true"
       apply_with_weight="true"
       only_selected="false"
       uniform="false" /><inkscape:path-effect
       effect="bspline"
       id="path-effect57-2"
       is_visible="true"
       lpeversion="1.3"
       weight="33.333333"
       steps="2"
       helper_size="0"
       apply_no_weight="true"
       apply_with_weight="true"
       only_selected="false"
       uniform="false" /><inkscape:path-effect
       effect="bspline"
       id="path-effect58-4"
       is_visible="true"
       lpeversion="1.3"
       weight="33.333333"
       steps="2"
       helper_size="0"
       apply_no_weight="true"
       apply_with_weight="true"
       only_selected="false"
       uniform="false" /><inkscape:path-effect
       effect="bspline"
       id="path-effect59-2"
       is_visible="true"
       lpeversion="1.3"
       weight="33.333333"
       steps="2"
       helper_size="0"
       apply_no_weight="true"
       apply_with_weight="true"
       only_selected="false"
       uniform="false" /><inkscape:path-effect
       effect="bspline"
       id="path-effect64-8"
       is_visible="true"
       lpeversion="1.3"
       weight="33.333333"
       steps="2"
       helper_size="0"
       apply_no_weight="true"
       apply_with_weight="true"
       only_selected="false"
       uniform="false" /><inkscape:path-effect
       effect="bspline"
       id="path-effect65-0"
       is_visible="true"
       lpeversion="1.3"
       weight="33.333333"
       steps="2"
       helper_size="0"
       apply_no_weight="true"
       apply_with_weight="true"
       only_selected="false"
       uniform="false" /></defs><g
     inkscape:label="Layer 1"
     inkscape:groupmode="layer"
     id="layer1"
     transform="translate(-52.099,-35.319369)"><g
       id="g72"><path
         style="fill:none;stroke:#ff0000;stroke-width:0.330999;stroke-miterlimit:3.7;stroke-dasharray:none;stroke-opacity:1;paint-order:fill markers stroke"
         d="m 100.99022,35.346576 c 0.28053,8.322342 0.56105,16.644683 0.60781,32.494771 0.0468,15.850088 -0.14026,39.226983 -0.23377,55.217193 -0.0935,15.9902 -0.0935,24.5929 -0.0935,33.19577"
         id="path65"
         inkscape:path-effect="#path-effect66"
         inkscape:original-d="m 100.99022,35.346576 c 0.28053,8.322342 0.56105,16.644683 0.84158,24.967025 -0.18702,23.377834 -0.37404,46.754729 -0.56105,70.132099 0,8.60304 0,17.20574 0,25.80861" /><path
         style="fill:none;stroke:#ff0000;stroke-width:0.330999;stroke-miterlimit:3.7;stroke-dasharray:none;stroke-opacity:1;paint-order:fill markers stroke"
         d="m 82.194817,35.346576 c 0.654566,3.927398 1.309132,7.854794 1.916949,10.987385 0.607817,3.132591 1.168862,5.47028 1.729925,7.340484 0.561062,1.870203 1.122108,3.272817 1.776681,4.909251 0.654574,1.636434 1.402634,3.506585 1.963694,15.055216 0.56106,11.548631 0.935091,32.774858 0.374018,44.463558 -0.561074,11.68871 -2.057191,13.83938 -2.898778,16.27066 -0.841587,2.43127 -1.028602,5.14299 -1.122112,8.69639 -0.09351,3.5534 -0.09351,7.94826 -0.09351,12.3432"
         id="path62"
         inkscape:path-effect="#path-effect63"
         inkscape:original-d="m 82.194817,35.346576 c 0.654566,3.927398 1.309132,7.854794 1.963698,11.782192 0.561067,2.337784 1.122114,4.675473 1.68317,7.01321 0.561068,1.40267 1.122114,2.805284 1.683171,4.207925 0.748091,1.870226 1.49615,3.740378 2.244225,5.610569 0.374047,21.227071 0.748078,42.453298 1.122114,63.679938 -1.496182,2.15077 -2.992303,4.30144 -4.488453,6.45216 -0.187023,2.71183 -0.374038,5.42355 -0.561057,8.13532 0,4.39503 0,8.78989 0,13.18483" /><path
         style="fill:none;stroke:#ff0000;stroke-width:0.330999;stroke-miterlimit:3.7;stroke-dasharray:none;stroke-opacity:1;paint-order:fill markers stroke"
         d="m 75.462134,35.907633 c 0.654566,4.394943 1.309132,8.789889 2.103972,12.483543 0.79484,3.693653 1.729917,6.685898 2.524754,9.117162 0.794837,2.431264 1.44939,4.301415 2.150719,5.750822 0.701328,1.449407 1.449389,2.477991 1.963693,12.623961 0.514305,10.145969 0.794828,29.408529 0.187002,40.208899 -0.607825,10.80036 -2.103947,13.13805 -2.945535,15.00826 -0.841588,1.8702 -1.028602,3.27281 -1.309135,5.23653 -0.280532,1.96373 -0.654563,4.48844 -0.888338,6.82619 -0.233774,2.33776 -0.327281,4.48844 -0.420792,6.49891 -0.09351,2.01047 -0.187018,3.88063 -0.280528,5.75081"
         id="path61"
         inkscape:path-effect="#path-effect62"
         inkscape:original-d="m 75.462134,35.907633 c 0.654566,4.394943 1.309132,8.789889 1.963698,13.184833 0.935114,2.992363 1.870192,5.984608 2.805285,8.97691 0.654579,1.870226 1.309131,3.740378 1.9637,5.610566 0.748088,1.028626 1.49615,2.05721 2.244225,3.085812 0.280535,19.263336 0.561057,38.525896 0.841587,57.788846 -1.496182,2.33778 -2.992303,4.67547 -4.488456,7.01321 -0.187023,1.40267 -0.374036,2.80528 -0.561056,4.20793 -0.374045,2.5248 -0.748075,5.04951 -1.122114,7.57426 -0.09351,2.15076 -0.187018,4.30144 -0.280527,6.45215 -0.09351,1.87023 -0.187018,3.74039 -0.28053,5.61057" /><path
         style="fill:none;stroke:#ff0000;stroke-width:0.330999;stroke-miterlimit:3.7;stroke-dasharray:none;stroke-opacity:1;paint-order:fill markers stroke"
         d="m 70.132095,35.907633 c 0.09351,2.898793 0.18702,5.797587 0.420797,8.649653 0.233778,2.852067 0.607807,5.657294 1.07536,8.41585 0.467552,2.758556 1.028598,5.470276 1.729927,8.041811 0.70133,2.571534 1.542899,5.002732 2.431248,6.826178 0.888349,1.823446 1.823425,3.039046 2.244217,11.501809 0.420791,8.462764 0.327284,24.172036 -0.467561,33.803546 -0.794845,9.63151 -2.290967,13.1848 -3.366333,16.64468 -1.075366,3.45989 -1.729918,6.82616 -2.103957,11.03413 -0.374039,4.20798 -0.467547,9.25739 -0.561057,14.3069"
         id="path60"
         inkscape:path-effect="#path-effect61"
         inkscape:original-d="m 70.132095,35.907633 c 0.09351,2.898793 0.187018,5.797587 0.28053,8.69638 0.374044,2.80534 0.748075,5.610567 1.122111,8.415851 0.56107,2.711828 1.122114,5.423548 1.683171,8.135324 0.841602,2.431293 1.68317,4.862491 2.524757,7.293737 0.935112,1.215646 1.870189,2.431245 2.805282,3.646868 -0.09351,15.709905 -0.187018,31.419177 -0.280527,47.128767 -1.496182,3.55343 -2.992303,7.10672 -4.488455,10.66008 -0.654579,3.36641 -1.309132,6.73268 -1.963698,10.09902 -0.09351,5.04961 -0.187018,10.09902 -0.28053,15.14853" /><path
         style="fill:none;stroke:#ff0000;stroke-width:0.330999;stroke-miterlimit:3.7;stroke-dasharray:none;stroke-opacity:1;paint-order:fill markers stroke"
         d="m 64.802056,36.18816 c 0.748076,9.631476 1.496152,19.26295 2.244235,25.855402 0.748083,6.592452 1.496144,10.145743 2.150716,13.371847 0.654572,3.226104 1.215618,6.124839 1.542902,11.31469 0.327284,5.189851 0.420791,12.670458 -0.187035,18.608351 -0.607825,5.9379 -1.916929,10.33275 -2.758519,18.46819 -0.84159,8.13545 -1.21562,20.01091 -1.589658,31.88661"
         id="path59"
         inkscape:path-effect="#path-effect60"
         inkscape:original-d="m 64.802056,36.18816 c 0.748075,9.631476 1.496153,19.26295 2.244228,28.894426 0.748091,3.553428 1.49615,7.106719 2.244227,10.660078 0.561068,2.898849 1.122114,5.797584 1.683171,8.696378 0.09351,7.480908 0.187018,14.961515 0.280527,22.442268 -1.309158,4.39504 -2.618264,8.78989 -3.927398,13.18484 -0.374044,11.87594 -0.748075,23.7514 -1.122114,35.6271" /><path
         style="fill:none;stroke:#ff0000;stroke-width:0.330999;stroke-miterlimit:3.7;stroke-dasharray:none;stroke-opacity:1;paint-order:fill markers stroke"
         d="m 82.194817,35.346576 c 0.654566,3.927398 1.309132,7.854794 1.916949,10.987385 0.607817,3.132591 1.168862,5.47028 1.729925,7.340484 0.561062,1.870203 1.122108,3.272817 1.776681,4.909251 0.654574,1.636434 1.402634,3.506585 1.963694,15.055216 0.56106,11.548631 0.935091,32.774858 0.374018,44.463558 -0.561074,11.68871 -2.057191,13.83938 -2.898778,16.27066 -0.841587,2.43127 -1.028602,5.14299 -1.122112,8.69639 -0.09351,3.5534 -0.09351,7.94826 -0.09351,12.3432"
         id="path62-0"
         inkscape:path-effect="#path-effect63-8"
         inkscape:original-d="m 82.194817,35.346576 c 0.654566,3.927398 1.309132,7.854794 1.963698,11.782192 0.561067,2.337784 1.122114,4.675473 1.68317,7.01321 0.561068,1.40267 1.122114,2.805284 1.683171,4.207925 0.748091,1.870226 1.49615,3.740378 2.244225,5.610569 0.374047,21.227071 0.748078,42.453298 1.122114,63.679938 -1.496182,2.15077 -2.992303,4.30144 -4.488453,6.45216 -0.187023,2.71183 -0.374038,5.42355 -0.561057,8.13532 0,4.39503 0,8.78989 0,13.18483"
         transform="matrix(-1,0,0,1,202.79559,0.13476676)" /><path
         style="fill:none;stroke:#ff0000;stroke-width:0.330999;stroke-miterlimit:3.7;stroke-dasharray:none;stroke-opacity:1;paint-order:fill markers stroke"
         d="m 75.462134,35.907633 c 0.654566,4.394943 1.309132,8.789889 2.103972,12.483543 0.79484,3.693653 1.729917,6.685898 2.524754,9.117162 0.794837,2.431264 1.44939,4.301415 2.150719,5.750822 0.701328,1.449407 1.449389,2.477991 1.963693,12.623961 0.514305,10.145969 0.794828,29.408529 0.187002,40.208899 -0.607825,10.80036 -2.103947,13.13805 -2.945535,15.00826 -0.841588,1.8702 -1.028602,3.27281 -1.309135,5.23653 -0.280532,1.96373 -0.654563,4.48844 -0.888338,6.82619 -0.233774,2.33776 -0.327281,4.48844 -0.420792,6.49891 -0.09351,2.01047 -0.187018,3.88063 -0.280528,5.75081"
         id="path61-0"
         inkscape:path-effect="#path-effect62-65"
         inkscape:original-d="m 75.462134,35.907633 c 0.654566,4.394943 1.309132,8.789889 1.963698,13.184833 0.935114,2.992363 1.870192,5.984608 2.805285,8.97691 0.654579,1.870226 1.309131,3.740378 1.9637,5.610566 0.748088,1.028626 1.49615,2.05721 2.244225,3.085812 0.280535,19.263336 0.561057,38.525896 0.841587,57.788846 -1.496182,2.33778 -2.992303,4.67547 -4.488456,7.01321 -0.187023,1.40267 -0.374036,2.80528 -0.561056,4.20793 -0.374045,2.5248 -0.748075,5.04951 -1.122114,7.57426 -0.09351,2.15076 -0.187018,4.30144 -0.280527,6.45215 -0.09351,1.87023 -0.187018,3.74039 -0.28053,5.61057"
         transform="matrix(-1,0,0,1,202.79559,0.13476676)" /><path
         style="fill:none;stroke:#ff0000;stroke-width:0.330999;stroke-miterlimit:3.7;stroke-dasharray:none;stroke-opacity:1;paint-order:fill markers stroke"
         d="m 70.132095,35.907633 c 0.09351,2.898793 0.18702,5.797587 0.420797,8.649653 0.233778,2.852067 0.607807,5.657294 1.07536,8.41585 0.467552,2.758556 1.028598,5.470276 1.729927,8.041811 0.70133,2.571534 1.542899,5.002732 2.431248,6.826178 0.888349,1.823446 1.823425,3.039046 2.244217,11.501809 0.420791,8.462764 0.327284,24.172036 -0.467561,33.803546 -0.794845,9.63151 -2.290967,13.1848 -3.366333,16.64468 -1.075366,3.45989 -1.729918,6.82616 -2.103957,11.03413 -0.374039,4.20798 -0.467547,9.25739 -0.561057,14.3069"
         id="path60-7"
         inkscape:path-effect="#path-effect61-80"
         inkscape:original-d="m 70.132095,35.907633 c 0.09351,2.898793 0.187018,5.797587 0.28053,8.69638 0.374044,2.80534 0.748075,5.610567 1.122111,8.415851 0.56107,2.711828 1.122114,5.423548 1.683171,8.135324 0.841602,2.431293 1.68317,4.862491 2.524757,7.293737 0.935112,1.215646 1.870189,2.431245 2.805282,3.646868 -0.09351,15.709905 -0.187018,31.419177 -0.280527,47.128767 -1.496182,3.55343 -2.992303,7.10672 -4.488455,10.66008 -0.654579,3.36641 -1.309132,6.73268 -1.963698,10.09902 -0.09351,5.04961 -0.187018,10.09902 -0.28053,15.14853"
         transform="matrix(-1,0,0,1,202.79559,0.13476676)" /><path
         style="fill:none;stroke:#ff0000;stroke-width:0.330999;stroke-miterlimit:3.7;stroke-dasharray:none;stroke-opacity:1;paint-order:fill markers stroke"
         d="m 64.802056,36.18816 c 0.748076,9.631476 1.496152,19.26295 2.244235,25.855402 0.748083,6.592452 1.496144,10.145743 2.150716,13.371847 0.654572,3.226104 1.215618,6.124839 1.542902,11.31469 0.327284,5.189851 0.420791,12.670458 -0.187035,18.608351 -0.607825,5.9379 -1.916929,10.33275 -2.758519,18.46819 -0.84159,8.13545 -1.21562,20.01091 -1.589658,31.88661"
         id="path59-1"
         inkscape:path-effect="#path-effect60-3"
         inkscape:original-d="m 64.802056,36.18816 c 0.748075,9.631476 1.496153,19.26295 2.244228,28.894426 0.748091,3.553428 1.49615,7.106719 2.244227,10.660078 0.561068,2.898849 1.122114,5.797584 1.683171,8.696378 0.09351,7.480908 0.187018,14.961515 0.280527,22.442268 -1.309158,4.39504 -2.618264,8.78989 -3.927398,13.18484 -0.374044,11.87594 -0.748075,23.7514 -1.122114,35.6271"
         transform="matrix(-1,0,0,1,202.79559,0.13476676)" /><path
         style="fill:none;stroke:#ff0000;stroke-width:0.330999;stroke-miterlimit:3.7;stroke-dasharray:none;stroke-opacity:1;paint-order:fill markers stroke"
         d="m 59.752544,35.907633 c 0.280529,10.940608 0.561058,21.881213 1.122123,29.595789 0.561065,7.714575 1.402633,12.20294 1.870182,18.888956 0.467548,6.686015 0.561056,15.569236 0.233766,22.816272 -0.327291,7.24704 -1.075352,12.8575 -1.542901,20.66564 -0.467549,7.80814 -0.654564,17.81345 -0.841583,27.81896"
         id="path58-3"
         inkscape:path-effect="#path-effect59-2"
         inkscape:original-d="m 59.752544,35.907633 c 0.28053,10.940608 0.561057,21.881213 0.841587,32.821821 0.841602,4.488543 1.68317,8.976908 2.524754,13.465363 0.09351,8.883576 0.187019,17.766797 0.28053,26.650193 -0.748091,5.61068 -1.496152,11.22114 -2.244227,16.8317 -0.187024,10.00572 -0.374039,20.01103 -0.561057,30.01654"
         transform="matrix(-0.99972027,0.0236515,0.0236515,0.99972027,200.5126,-1.2921409)" /><path
         style="fill:url(#radialGradient7);stroke:none;stroke-width:0.339603;stroke-opacity:1;paint-order:fill markers stroke"
         id="path6-24"
         sodipodi:type="arc"
         sodipodi:cx="102.0279"
         sodipodi:cy="95.673225"
         sodipodi:rx="35"
         sodipodi:ry="35"
         sodipodi:start="0"
         sodipodi:end="6.2060046"
         sodipodi:open="true"
         sodipodi:arc-type="arc"
         d="M 137.0279,95.673225 A 35,35 0 0 1 102.70319,130.66671 35,35 0 0 1 67.053959,97.023553 35,35 0 0 1 100.00304,60.731847 35,35 0 0 1 136.92371,92.974582" /><path
         style="fill:none;stroke:#ff0000;stroke-width:0.330999;stroke-miterlimit:3.7;stroke-dasharray:none;stroke-opacity:1;paint-order:fill markers stroke"
         d="m 50.21458,36.46869 c 0,39.554501 0,79.109 0,118.6635"
         id="path56"
         inkscape:path-effect="#path-effect57"
         inkscape:original-d="m 50.21458,36.46869 c 0,39.554501 0,79.109 0,118.6635"
         transform="translate(3.1750001)" /><path
         style="fill:none;stroke:#ff0000;stroke-width:0.330999;stroke-miterlimit:3.7;stroke-dasharray:none;stroke-opacity:1;paint-order:fill markers stroke"
         d="m 56.386205,35.907633 c 0.187019,14.02642 0.374038,28.052839 0.748082,38.946768 0.374043,10.893929 0.935089,18.65506 0.888327,25.715089 -0.04676,7.06003 -0.701314,13.41854 -1.075353,22.30206 -0.374039,8.88351 -0.467547,20.29143 -0.561056,31.69959"
         id="path57"
         inkscape:path-effect="#path-effect58"
         inkscape:original-d="m 56.386205,35.907633 c 0.187018,14.02642 0.374037,28.052839 0.561057,42.079256 0.561068,7.761441 1.122114,15.522572 1.683171,23.283861 -0.654582,6.35877 -1.309135,12.71728 -1.9637,19.07592 -0.09351,11.40839 -0.187019,22.81631 -0.280528,34.22447" /><path
         style="fill:none;stroke:#ff0000;stroke-width:0.330999;stroke-miterlimit:3.7;stroke-dasharray:none;stroke-opacity:1;paint-order:fill markers stroke"
         d="m 59.752544,35.907633 c 0.280529,10.940608 0.561058,21.881213 1.122123,29.595789 0.561065,7.714575 1.402633,12.20294 1.870182,18.888956 0.467548,6.686015 0.561056,15.569236 0.233766,22.816272 -0.327291,7.24704 -1.075352,12.8575 -1.542901,20.66564 -0.467549,7.80814 -0.654564,17.81345 -0.841583,27.81896"
         id="path58"
         inkscape:path-effect="#path-effect59"
         inkscape:original-d="m 59.752544,35.907633 c 0.28053,10.940608 0.561057,21.881213 0.841587,32.821821 0.841602,4.488543 1.68317,8.976908 2.524754,13.465363 0.09351,8.883576 0.187019,17.766797 0.28053,26.650193 -0.748091,5.61068 -1.496152,11.22114 -2.244227,16.8317 -0.187024,10.00572 -0.374039,20.01103 -0.561057,30.01654"
         transform="rotate(1.3552577,61.462523,95.799867)" /><path
         style="fill:none;stroke:#ff0000;stroke-width:0.330999;stroke-miterlimit:3.7;stroke-dasharray:none;stroke-opacity:1;paint-order:fill markers stroke"
         d="m 91.452252,35.346576 c 0.280529,3.366341 0.561057,6.73268 0.9351,9.444475 0.374042,2.711796 0.84158,4.768963 1.355888,6.73268 0.514307,1.963718 1.075353,3.83387 1.683171,5.423543 0.607818,1.589674 1.262371,2.898782 1.916937,4.207914"
         id="path63"
         inkscape:path-effect="#path-effect64"
         inkscape:original-d="m 91.452252,35.346576 c 0.280529,3.366341 0.561057,6.73268 0.841586,10.099021 0.467556,2.05725 0.935093,4.114417 1.402641,6.171626 0.561068,1.870226 1.122114,3.740378 1.683171,5.610566 0.654579,1.309159 1.309132,2.618267 1.963698,3.927399" /><path
         style="fill:none;stroke:#ff0000;stroke-width:0.330999;stroke-miterlimit:3.7;stroke-dasharray:none;stroke-opacity:1;paint-order:fill markers stroke"
         d="m 96.501764,130.16517 c -1.402641,2.61826 -2.805286,5.23653 -3.413094,7.99508 -0.607809,2.75856 -0.420794,5.6573 -0.420796,8.64963 -2e-6,2.99234 -0.187017,6.07809 -0.374036,9.1639"
         id="path64"
         inkscape:path-effect="#path-effect65"
         inkscape:original-d="m 96.501764,130.16517 c -1.402644,2.61826 -2.805285,5.23653 -4.207926,7.85479 0.187021,2.89885 0.374037,5.79759 0.561057,8.69638 -0.187023,3.08588 -0.374039,6.17163 -0.561057,9.25744" /><path
         style="fill:#ff0000;fill-opacity:1;stroke:#ff0000;stroke-width:0.182734;stroke-miterlimit:3.7;stroke-dasharray:none;stroke-opacity:1;paint-order:fill markers stroke"
         d="m 52.184251,53.091037 1.203166,-3.120858 1.203164,3.228472 -1.203164,-1.506619 z"
         id="path72" /><path
         style="fill:#ff0000;fill-opacity:1;stroke:#ff0000;stroke-width:0.182734;stroke-miterlimit:3.7;stroke-dasharray:none;stroke-opacity:1;paint-order:fill markers stroke"
         d="m 52.258085,139.23595 1.203166,-3.12086 1.203164,3.22847 -1.203164,-1.50662 z"
         id="path72-8" /><path
         style="fill:#ff0000;fill-opacity:1;stroke:#ff0000;stroke-width:0.182734;stroke-miterlimit:3.7;stroke-dasharray:none;stroke-opacity:1;paint-order:fill markers stroke"
         d="m 55.415251,53.318261 1.203166,-3.120858 1.203164,3.228472 -1.203164,-1.506619 z"
         id="path72-5" /><path
         style="fill:#ff0000;fill-opacity:1;stroke:#ff0000;stroke-width:0.182734;stroke-miterlimit:3.7;stroke-dasharray:none;stroke-opacity:1;paint-order:fill markers stroke"
         d="m 55.712662,139.75013 1.203166,-3.12086 1.203164,3.22847 -1.203164,-1.50662 z"
         id="path72-5-2" /><path
         style="fill:#ff0000;fill-opacity:1;stroke:#ff0000;stroke-width:0.182734;stroke-miterlimit:3.7;stroke-dasharray:none;stroke-opacity:1;paint-order:fill markers stroke"
         d="m 60.11037,53.114392 1.203166,-3.120858 1.203164,3.228472 -1.203164,-1.506619 z"
         id="path72-5-0" /><path
         style="fill:#ff0000;fill-opacity:1;stroke:#ff0000;stroke-width:0.182734;stroke-miterlimit:3.7;stroke-dasharray:none;stroke-opacity:1;paint-order:fill markers stroke"
         d="m 58.972505,141.148 1.203166,-3.12086 1.203164,3.22847 -1.203164,-1.50661 z"
         id="path72-5-0-7" /><path
         style="fill:#ff0000;fill-opacity:1;stroke:#ff0000;stroke-width:0.182734;stroke-miterlimit:3.7;stroke-dasharray:none;stroke-opacity:1;paint-order:fill markers stroke"
         d="m 65.156446,53.956173 0.682604,-3.274357 1.709452,2.991389 -1.430984,-1.292203 z"
         id="path72-5-0-2" /><path
         style="fill:#ff0000;fill-opacity:1;stroke:#ff0000;stroke-width:0.182734;stroke-miterlimit:3.7;stroke-dasharray:none;stroke-opacity:1;paint-order:fill markers stroke"
         d="m 67.608801,142.21186 -0.682604,-3.27436 -1.709452,2.99139 1.430984,-1.2922 z"
         id="path72-5-0-2-0" /><path
         style="fill:#ff0000;fill-opacity:1;stroke:#ff0000;stroke-width:0.182734;stroke-miterlimit:3.7;stroke-dasharray:none;stroke-opacity:1;paint-order:fill markers stroke"
         d="m 70.862637,54.702975 0.675149,-3.275903 1.716257,2.987491 -1.433922,-1.288942 z"
         id="path72-5-0-2-7" /><path
         style="fill:#ff0000;fill-opacity:1;stroke:#ff0000;stroke-width:0.182734;stroke-miterlimit:3.7;stroke-dasharray:none;stroke-opacity:1;paint-order:fill markers stroke"
         d="m 72.979617,143.08697 -0.675149,-3.2759 -1.716257,2.98749 1.433922,-1.28895 z"
         id="path72-5-0-2-7-1" /><path
         style="fill:#ff0000;fill-opacity:1;stroke:#ff0000;stroke-width:0.182734;stroke-miterlimit:3.7;stroke-dasharray:none;stroke-opacity:1;paint-order:fill markers stroke"
         d="m 77.557493,54.206938 0.675149,-3.275903 1.716257,2.987491 -1.433922,-1.288942 z"
         id="path72-5-0-2-7-9" /><path
         style="fill:#ff0000;fill-opacity:1;stroke:#ff0000;stroke-width:0.182734;stroke-miterlimit:3.7;stroke-dasharray:none;stroke-opacity:1;paint-order:fill markers stroke"
         d="m 80.372958,143.22173 -0.675149,-3.2759 -1.716257,2.98749 1.433922,-1.28895 z"
         id="path72-5-0-2-7-9-4" /><path
         style="fill:#ff0000;fill-opacity:1;stroke:#ff0000;stroke-width:0.182734;stroke-miterlimit:3.7;stroke-dasharray:none;stroke-opacity:1;paint-order:fill markers stroke"
         d="m 85.048872,54.497866 0.144515,-3.341629 2.170377,2.675837 -1.62099,-1.04398 z"
         id="path72-5-0-2-7-9-3" /><path
         style="fill:#ff0000;fill-opacity:1;stroke:#ff0000;stroke-width:0.182734;stroke-miterlimit:3.7;stroke-dasharray:none;stroke-opacity:1;paint-order:fill markers stroke"
         d="m 87.376185,143.48911 -1.206016,-3.11976 -1.200212,3.22958 1.201786,-1.50773 z"
         id="path72-5-0-2-7-9-3-2" /><path
         style="fill:#ff0000;fill-opacity:1;stroke:#ff0000;stroke-width:0.182734;stroke-miterlimit:3.7;stroke-dasharray:none;stroke-opacity:1;paint-order:fill markers stroke"
         d="m 93.293172,53.99636 0.144515,-3.341629 2.170377,2.675837 -1.62099,-1.04398 z"
         id="path72-5-0-2-7-9-3-7" /><path
         style="fill:#ff0000;fill-opacity:1;stroke:#ff0000;stroke-width:0.182734;stroke-miterlimit:3.7;stroke-dasharray:none;stroke-opacity:1;paint-order:fill markers stroke"
         d="m 93.825268,143.13049 -0.931317,-3.21248 -1.475385,3.11349 1.32784,-1.39798 z"
         id="path72-5-0-2-7-9-3-7-4" /><path
         style="fill:none;stroke:#ff0000;stroke-width:0.330999;stroke-miterlimit:3.7;stroke-dasharray:none;stroke-opacity:1;paint-order:fill markers stroke"
         d="m 50.21458,36.46869 c 0,39.554501 0,79.109 0,118.6635"
         id="path56-9"
         inkscape:path-effect="#path-effect57-2"
         inkscape:original-d="m 50.21458,36.46869 c 0,39.554501 0,79.109 0,118.6635"
         transform="matrix(-1,0,0,1,199.62059,0.13476676)" /><path
         style="fill:none;stroke:#ff0000;stroke-width:0.330999;stroke-miterlimit:3.7;stroke-dasharray:none;stroke-opacity:1;paint-order:fill markers stroke"
         d="m 56.386205,35.907633 c 0.187019,14.02642 0.374038,28.052839 0.748082,38.946768 0.374043,10.893929 0.935089,18.65506 0.888327,25.715089 -0.04676,7.06003 -0.701314,13.41854 -1.075353,22.30206 -0.374039,8.88351 -0.467547,20.29143 -0.561056,31.69959"
         id="path57-5"
         inkscape:path-effect="#path-effect58-4"
         inkscape:original-d="m 56.386205,35.907633 c 0.187018,14.02642 0.374037,28.052839 0.561057,42.079256 0.561068,7.761441 1.122114,15.522572 1.683171,23.283861 -0.654582,6.35877 -1.309135,12.71728 -1.9637,19.07592 -0.09351,11.40839 -0.187019,22.81631 -0.280528,34.22447"
         transform="matrix(-1,0,0,1,202.79559,0.13476676)" /><path
         style="fill:none;stroke:#ff0000;stroke-width:0.330999;stroke-miterlimit:3.7;stroke-dasharray:none;stroke-opacity:1;paint-order:fill markers stroke"
         d="m 91.452252,35.346576 c 0.280529,3.366341 0.561057,6.73268 0.9351,9.444475 0.374042,2.711796 0.84158,4.768963 1.355888,6.73268 0.514307,1.963718 1.075353,3.83387 1.683171,5.423543 0.607818,1.589674 1.262371,2.898782 1.916937,4.207914"
         id="path63-5"
         inkscape:path-effect="#path-effect64-8"
         inkscape:original-d="m 91.452252,35.346576 c 0.280529,3.366341 0.561057,6.73268 0.841586,10.099021 0.467556,2.05725 0.935093,4.114417 1.402641,6.171626 0.561068,1.870226 1.122114,3.740378 1.683171,5.610566 0.654579,1.309159 1.309132,2.618267 1.963698,3.927399"
         transform="matrix(-1,0,0,1,202.79559,0.13476676)" /><path
         style="fill:none;stroke:#ff0000;stroke-width:0.330999;stroke-miterlimit:3.7;stroke-dasharray:none;stroke-opacity:1;paint-order:fill markers stroke"
         d="m 96.501764,130.16517 c -1.402641,2.61826 -2.805286,5.23653 -3.413094,7.99508 -0.607809,2.75856 -0.420794,5.6573 -0.420796,8.64963 -2e-6,2.99234 -0.187017,6.07809 -0.374036,9.1639"
         id="path64-8"
         inkscape:path-effect="#path-effect65-0"
         inkscape:original-d="m 96.501764,130.16517 c -1.402644,2.61826 -2.805285,5.23653 -4.207926,7.85479 0.187021,2.89885 0.374037,5.79759 0.561057,8.69638 -0.187023,3.08588 -0.374039,6.17163 -0.561057,9.25744"
         transform="matrix(-1,0,0,1,202.79559,0.13476676)" /><path
         style="fill:#ff0000;fill-opacity:1;stroke:#ff0000;stroke-width:0.182734;stroke-miterlimit:3.7;stroke-dasharray:none;stroke-opacity:1;paint-order:fill markers stroke"
         d="m 150.61131,53.225737 -1.20317,-3.120842 -1.20317,3.228452 1.20317,-1.506611 z"
         id="path72-1" /><path
         style="fill:#ff0000;fill-opacity:1;stroke:#ff0000;stroke-width:0.182734;stroke-miterlimit:3.7;stroke-dasharray:none;stroke-opacity:1;paint-order:fill markers stroke"
         d="m 150.53748,139.37038 -1.20317,-3.12086 -1.20317,3.22847 1.20317,-1.50662 z"
         id="path72-8-7" /><path
         style="fill:#ff0000;fill-opacity:1;stroke:#ff0000;stroke-width:0.182734;stroke-miterlimit:3.7;stroke-dasharray:none;stroke-opacity:1;paint-order:fill markers stroke"
         d="m 147.3803,53.452954 -1.20318,-3.120842 -1.20317,3.228462 1.20317,-1.506611 z"
         id="path72-5-9" /><path
         style="fill:#ff0000;fill-opacity:1;stroke:#ff0000;stroke-width:0.182734;stroke-miterlimit:3.7;stroke-dasharray:none;stroke-opacity:1;paint-order:fill markers stroke"
         d="m 147.08289,139.88456 -1.20318,-3.12086 -1.20317,3.22847 1.20317,-1.50662 z"
         id="path72-5-2-1" /><path
         style="fill:#ff0000;fill-opacity:1;stroke:#ff0000;stroke-width:0.182734;stroke-miterlimit:3.7;stroke-dasharray:none;stroke-opacity:1;paint-order:fill markers stroke"
         d="m 142.68515,53.249087 -1.20317,-3.120832 -1.20317,3.228452 1.20317,-1.506614 z"
         id="path72-5-0-8" /><path
         style="fill:#ff0000;fill-opacity:1;stroke:#ff0000;stroke-width:0.182734;stroke-miterlimit:3.7;stroke-dasharray:none;stroke-opacity:1;paint-order:fill markers stroke"
         d="m 143.82302,141.28243 -1.20317,-3.12086 -1.20317,3.22847 1.20317,-1.50661 z"
         id="path72-5-0-7-1" /><path
         style="fill:#ff0000;fill-opacity:1;stroke:#ff0000;stroke-width:0.182734;stroke-miterlimit:3.7;stroke-dasharray:none;stroke-opacity:1;paint-order:fill markers stroke"
         d="m 137.63905,54.090861 -0.68261,-3.274332 -1.70946,2.991375 1.43099,-1.292204 z"
         id="path72-5-0-2-1" /><path
         style="fill:#ff0000;fill-opacity:1;stroke:#ff0000;stroke-width:0.182734;stroke-miterlimit:3.7;stroke-dasharray:none;stroke-opacity:1;paint-order:fill markers stroke"
         d="m 135.18668,142.34629 0.6826,-3.27436 1.70947,2.99139 -1.43099,-1.2922 z"
         id="path72-5-0-2-0-3" /><path
         style="fill:#ff0000;fill-opacity:1;stroke:#ff0000;stroke-width:0.182734;stroke-miterlimit:3.7;stroke-dasharray:none;stroke-opacity:1;paint-order:fill markers stroke"
         d="m 131.93282,54.837668 -0.67515,-3.275892 -1.71627,2.987472 1.43393,-1.288931 z"
         id="path72-5-0-2-7-98" /><path
         style="fill:#ff0000;fill-opacity:1;stroke:#ff0000;stroke-width:0.182734;stroke-miterlimit:3.7;stroke-dasharray:none;stroke-opacity:1;paint-order:fill markers stroke"
         d="m 129.81583,143.2214 0.67515,-3.2759 1.71627,2.98749 -1.43393,-1.28895 z"
         id="path72-5-0-2-7-1-1" /><path
         style="fill:#ff0000;fill-opacity:1;stroke:#ff0000;stroke-width:0.182734;stroke-miterlimit:3.7;stroke-dasharray:none;stroke-opacity:1;paint-order:fill markers stroke"
         d="m 125.23793,54.341631 -0.67515,-3.275882 -1.71625,2.987472 1.43392,-1.288931 z"
         id="path72-5-0-2-7-9-43" /><path
         style="fill:#ff0000;fill-opacity:1;stroke:#ff0000;stroke-width:0.182734;stroke-miterlimit:3.7;stroke-dasharray:none;stroke-opacity:1;paint-order:fill markers stroke"
         d="m 122.42247,143.35616 0.67515,-3.2759 1.71625,2.98749 -1.43392,-1.28895 z"
         id="path72-5-0-2-7-9-4-2" /><path
         style="fill:#ff0000;fill-opacity:1;stroke:#ff0000;stroke-width:0.182734;stroke-miterlimit:3.7;stroke-dasharray:none;stroke-opacity:1;paint-order:fill markers stroke"
         d="m 117.74655,54.632558 -0.14451,-3.341609 -2.17038,2.675822 1.62099,-1.043974 z"
         id="path72-5-0-2-7-9-3-8" /><path
         style="fill:#ff0000;fill-opacity:1;stroke:#ff0000;stroke-width:0.182734;stroke-miterlimit:3.7;stroke-dasharray:none;stroke-opacity:1;paint-order:fill markers stroke"
         d="m 115.41924,143.62354 1.20602,-3.11976 1.20021,3.22958 -1.20179,-1.50773 z"
         id="path72-5-0-2-7-9-3-2-9" /><path
         style="fill:#ff0000;fill-opacity:1;stroke:#ff0000;stroke-width:0.182734;stroke-miterlimit:3.7;stroke-dasharray:none;stroke-opacity:1;paint-order:fill markers stroke"
         d="m 109.50225,54.131051 -0.14451,-3.341612 -2.17038,2.675825 1.62099,-1.043974 z"
         id="path72-5-0-2-7-9-3-7-8" /><path
         style="fill:#ff0000;fill-opacity:1;stroke:#ff0000;stroke-width:0.182734;stroke-miterlimit:3.7;stroke-dasharray:none;stroke-opacity:1;paint-order:fill markers stroke"
         d="m 108.97016,143.26492 0.93131,-3.21248 1.47539,3.11349 -1.32784,-1.39798 z"
         id="path72-5-0-2-7-9-3-7-4-3" /><path
         style="fill:#ff0000;fill-opacity:1;stroke:#ff0000;stroke-width:0.182734;stroke-miterlimit:3.7;stroke-dasharray:none;stroke-opacity:1;paint-order:fill markers stroke"
         d="m 100.37485,54.113627 1.03921,-3.179215 1.36946,3.161519 -1.2799,-1.441997 z"
         id="path72-5-0-2-7-9-3-7-3" /><path
         style="fill:#ff0000;fill-opacity:1;stroke:#ff0000;stroke-width:0.182734;stroke-miterlimit:3.7;stroke-dasharray:none;stroke-opacity:1;paint-order:fill markers stroke"
         d="m 100.16985,144.16642 1.0392,-3.17922 1.36946,3.16152 -1.2799,-1.44199 z"
         id="path72-5-0-2-7-9-3-7-3-7" /></g></g></svg>
